HIERARCHY
ROOT hip
{
	OFFSET 0.000000 0.000000 0.000000 
	CHANNELS 6 Xposition Yposition Zposition Xrotation Zrotation Yrotation
	JOINT abdomen
	{
		OFFSET 0.000000 3.402643 0.000000 
		CHANNELS 3 Xrotation Zrotation Yrotation
		JOINT chest
		{
			OFFSET 0.000000 8.438565 -0.680529 
			CHANNELS 3 Xrotation Zrotation Yrotation
			JOINT neck
			{
				OFFSET 0.000000 10.207942 -0.272212 
				CHANNELS 3 Xrotation Zrotation Yrotation
				JOINT head
				{
					OFFSET 0.000000 3.130431 0.000000 
					CHANNELS 3 Xrotation Zrotation Yrotation
					End Site
					{
						OFFSET 0.000000 3.130435 0.000000 
					}
				}
			}
			JOINT lCollar
			{
				OFFSET 3.470700 6.669187 -0.816635 
				CHANNELS 3 Yrotation Zrotation Xrotation
				JOINT lShldr
				{
					OFFSET 3.198488 0.000000 0.000000 
					CHANNELS 3 Zrotation Yrotation Xrotation
					JOINT lForeArm
					{
						OFFSET 10.139888 0.000000 0.000000 
						CHANNELS 3 Yrotation Zrotation Xrotation
						JOINT lHand
						{
							OFFSET 8.370511 0.000000 0.000000 
							CHANNELS 3 Zrotation Yrotation Xrotation
							End Site
							{
								OFFSET 4.083176 0.000000 0.000000 
							}
						}
					}
				}
			}
			JOINT rCollar
			{
				OFFSET -3.470700 6.669187 -0.816635 
				CHANNELS 3 Yrotation Zrotation Xrotation
				JOINT rShldr
				{
					OFFSET -3.198488 0.000000 0.000000 
					CHANNELS 3 Zrotation Yrotation Xrotation
					JOINT rForeArm
					{
						OFFSET -10.139888 0.000000 0.000000 
						CHANNELS 3 Yrotation Zrotation Xrotation
						JOINT rHand
						{
							OFFSET -8.370511 0.000000 0.000000 
							CHANNELS 3 Zrotation Yrotation Xrotation
							End Site
							{
								OFFSET -4.083176 0.000000 0.000000 
							}
						}
					}
				}
			}
		}
	}
	JOINT lThigh
	{
		OFFSET 5.308129 -1.633274 1.361059 
		CHANNELS 3 Xrotation Zrotation Yrotation
		JOINT lShin
		{
			OFFSET -2.041588 -20.007561 0.000000 
			CHANNELS 3 Xrotation Zrotation Yrotation
			JOINT lFoot
			{
				OFFSET 0.000000 -19.190928 -1.224953 
				CHANNELS 3 Xrotation Yrotation Zrotation
				End Site
				{
					OFFSET 0.000000 -2.449906 4.627600 
				}
			}
		}
	}
	JOINT rThigh
	{
		OFFSET -5.308129 -1.633274 1.361059 
		CHANNELS 3 Xrotation Zrotation Yrotation
		JOINT rShin
		{
			OFFSET 2.041588 -20.007561 0.000000 
			CHANNELS 3 Xrotation Zrotation Yrotation
			JOINT rFoot
			{
				OFFSET 0.000000 -19.190928 -1.224953 
				CHANNELS 3 Xrotation Yrotation Zrotation
				End Site
				{
					OFFSET 0.000000 -2.449906 4.627600 
				}
			}
		}
	}
}
MOTION
Frames: 19
Frame Time: 0.033333
-61.836048 47.784424 -18.493742 8.593750 -5.292969 -84.023438 33.417969 4.404297 -5.410157 -23.662109 7.607422 -7.275390 -25.654297 2.998047 25.850121 16.689455 -4.511658 25.291904 22.353518 -9.931641 -0.047146 -56.982422 -58.564453 60.548309 -80.722656 -4.189453 -60.029297 -33.046875 15.458984 -9.912110 -14.746093 3.105469 -0.107951 17.480469 -10.224608 -82.697044 15.146484 -4.853515 109.990234 18.476563 -2.539063 -0.849609 -6.688490 47.369736 67.944908 46.786816 -0.463923 -2.916462 18.381346 2.860285 -12.868879 2.215992 -4.384925 -0.938734 27.532362 0.837928 1.905146 -18.017452 -12.590528 8.063327 
-61.957985 47.658604 -18.129400 8.593750 -5.292969 -82.285156 33.613285 4.785156 -4.754978 -24.179686 7.431641 -6.932331 -25.039063 2.636719 27.470968 16.503908 -4.677734 26.698420 22.353516 -9.775391 -0.117188 -53.427734 -55.029293 54.376759 -80.068359 -4.140625 -59.716801 -30.849607 13.466798 -8.064130 -14.755858 2.714844 -0.029759 17.158203 -10.273438 -86.866974 14.746093 -5.048828 105.078125 16.523436 -1.611328 -0.517578 -8.207785 46.189648 66.057823 47.345943 -0.463787 -3.128071 13.531339 4.947305 -13.190742 2.680771 -4.474834 -2.527351 27.899593 0.829279 1.764966 -18.032059 -12.962820 7.846218 
-62.119419 47.528767 -17.696527 8.593750 -5.800781 -80.166016 33.623047 5.166016 -4.120214 -24.707031 7.246094 -6.424549 -24.091797 2.246094 28.750383 16.152344 -4.677734 27.753107 22.197266 -9.531251 -0.047211 -50.615238 -50.849609 48.476563 -79.218750 -4.169922 -60.302025 -29.833982 12.236328 -6.951054 -14.755858 2.216797 -0.166393 16.865232 -10.283201 -92.646484 14.150391 -5.175573 98.252457 14.589844 -0.673828 -0.185662 -9.792307 44.761768 64.236282 47.651066 -0.454412 -3.332866 8.657691 7.365323 -13.047253 3.592054 -4.706121 -4.649837 28.778496 0.819177 1.804471 -17.750229 -13.195960 7.907156 
-62.348564 47.431061 -17.133551 8.613282 -6.689453 -77.559967 33.447269 5.351563 -3.348699 -24.882811 7.070312 -5.897236 -22.666016 1.933594 29.140957 15.800780 -4.863281 28.291361 22.050781 -9.316407 0.009765 -47.783199 -45.957035 42.336735 -78.193359 -4.199219 -62.079365 -30.615234 12.148438 -7.253804 -14.589843 1.826172 -0.088201 16.806641 -10.039063 -97.919922 12.988281 -5.234375 85.820313 12.304688 0.000000 0.000000 -10.954994 43.090900 62.164284 47.664917 -0.424681 -2.952905 3.131101 8.822819 -12.393332 4.623234 -5.208714 -6.993019 29.836647 0.638112 1.810448 -16.842457 -13.454308 8.083882 
-62.616802 47.427845 -16.386665 8.242188 -7.734375 -74.199219 33.261719 5.693360 -2.547859 -24.882813 7.421875 -5.195313 -20.917969 1.230469 29.199427 15.449219 -5.029296 28.291019 21.865234 -9.316407 -0.019531 -45.927731 -40.341797 37.542507 -76.679688 -4.375000 -64.305893 -32.314453 13.271485 -8.251953 -14.423828 1.484375 -0.176034 16.328125 -9.111328 -102.911705 11.767578 -4.990234 67.823112 9.833985 0.839844 0.166160 -11.725057 40.874653 59.756657 46.634068 -0.443971 -3.075335 -1.705825 10.457088 -11.379740 6.077641 -5.980600 -10.432211 31.402269 0.774047 2.268393 -13.946171 -13.217873 8.865933 
-62.874996 47.545227 -15.434585 7.558594 -9.160157 -70.177330 33.261719 5.693360 -1.815437 -24.707031 8.134767 -4.842369 -19.179688 0.654297 28.730579 15.107422 -5.029297 27.753054 21.699219 -9.316407 -0.047247 -44.931641 -34.853512 34.218750 -74.619141 -4.521484 -66.600792 -33.828125 13.994140 -9.284749 -14.062500 1.484375 -0.185800 15.673829 -7.324219 -107.677025 10.908203 -3.671759 44.542522 8.271484 2.226563 0.351944 -12.072254 37.713123 56.785194 45.590240 -0.453320 -3.018649 -6.856961 12.560845 -10.369850 7.306982 -7.376700 -13.995996 34.228020 0.616849 2.038348 -9.593295 -11.440243 10.105702 
-63.019424 47.768761 -14.322822 6.494141 -10.566406 -65.439453 33.066406 5.566407 -1.317412 -24.365232 9.003906 -4.129331 -18.017578 0.371094 27.695351 14.921875 -5.029085 26.875175 21.865234 -9.316407 -0.019531 -44.565502 -30.144363 32.769287 -72.373047 -4.599609 -69.149605 -34.697266 14.111328 -9.675354 -13.349609 1.826172 -0.127264 14.912109 -4.892578 -113.389503 11.230469 -2.041015 21.523439 10.068359 4.082031 0.703820 -12.618323 33.621655 52.586731 43.482212 -0.433348 -2.919312 -10.654871 13.855786 -9.003381 7.680948 -9.342076 -18.162205 39.313568 0.377421 2.500816 -3.404809 -9.831350 11.172879 
-62.986374 48.009560 -13.158189 5.273438 -11.425608 -60.529629 33.408203 5.166016 -0.497168 -24.179688 9.892579 -3.251953 -17.900391 0.605469 26.611330 15.107422 -5.029297 25.819458 21.865234 -9.316407 -0.019531 -44.335938 -26.757813 32.562183 -69.990234 -4.580078 -71.073677 -35.742188 13.222657 -9.511719 -12.822266 2.333984 -0.029695 14.501953 -1.142578 -119.883003 12.031674 -0.800809 5.566345 14.501953 4.951172 1.202015 -13.244165 29.293087 46.647221 41.545563 -0.608879 -2.706160 -12.937526 15.907012 -8.121630 6.024453 -12.753053 -23.035427 46.335640 -0.131059 2.478548 3.951576 -7.453952 12.336406 
-62.767109 48.182495 -12.086311 3.867188 -12.148438 -55.773537 34.072269 4.365235 0.557384 -24.521484 10.771485 -2.195441 -18.300783 1.201172 25.498049 15.283204 -5.029297 24.764767 21.865234 -9.316407 -0.019531 -43.818359 -24.189453 33.365143 -68.271484 -4.560547 -72.909378 -37.148438 12.792968 -9.636509 -11.943359 2.890625 -0.127446 14.921875 3.535007 -121.494652 12.890625 0.234375 -5.693359 18.271484 5.419922 1.669922 -13.956264 25.229876 40.396469 40.318668 -0.589285 -2.833802 -14.255827 18.146873 -6.943774 2.870003 -16.424084 -27.138342 53.881527 -0.668792 2.889735 12.424051 -6.359221 13.162491 
-62.410000 48.240452 -11.203568 2.460938 -12.314453 -51.376953 35.419922 3.388672 1.572843 -25.419922 10.772181 -0.984776 -19.218748 1.982422 24.531588 15.283204 -5.214844 24.061611 21.513672 -9.316406 -0.068360 -42.460938 -22.041016 33.746338 -67.011719 -4.755859 -75.077316 -39.023434 13.261719 -10.622759 -10.869141 3.945313 -0.156922 14.951171 9.316406 -120.224609 13.076173 0.888672 -13.379058 20.087891 5.898438 2.167969 -14.814631 21.574930 34.645126 39.650280 -0.784645 -2.664211 -14.852596 19.626574 -6.455238 -1.876384 -20.437424 -30.841982 60.904572 -1.020923 2.959393 19.189512 -7.657546 14.602236 
-62.000694 48.194275 -10.566838 1.054688 -12.304649 -47.511936 37.294922 2.373047 2.773842 -26.113279 10.068359 0.402098 -20.996096 2.636719 24.111160 15.107422 -5.205078 23.710051 21.367188 -9.072266 0.001540 -41.083984 -20.527344 34.059078 -66.611328 -4.716797 -77.841797 -40.332027 14.140626 -11.735894 -9.638673 5.166016 -0.039062 15.449219 16.767578 -116.406258 13.291016 1.435547 -20.517580 20.859375 6.445313 2.481565 -15.145690 18.246841 30.628740 39.249832 -0.891935 -2.903408 -15.569273 20.430988 -5.886955 -7.629566 -23.858791 -34.714134 65.805046 -1.382515 3.293804 22.784101 -11.084303 16.226618 
-61.628979 48.071266 -10.199820 -0.361328 -11.787110 -43.642582 39.365234 1.435547 3.623291 -26.826172 9.003906 1.601563 -23.291016 2.978516 23.896992 15.107422 -5.205078 23.534271 21.035158 -8.691406 -0.027821 -39.970703 -19.638672 33.808594 -66.445320 -4.755859 -80.703125 -40.537113 14.736329 -12.373047 -8.212891 6.406250 -0.156247 17.060545 25.263672 -108.681641 14.462892 2.246094 -28.799210 22.500000 6.767579 2.803887 -16.022783 15.246157 27.177677 39.051929 -0.917356 -2.697905 -15.528329 20.938976 -5.831675 -13.604288 -25.837690 -38.898655 68.263565 -1.548880 3.245522 23.355539 -14.885412 17.932268 
-61.408268 47.911449 -10.081496 -1.582031 -10.908202 -38.898335 41.074219 0.371094 4.248105 -27.001953 7.431641 2.833294 -26.132813 3.476563 23.671875 14.921875 -5.214624 23.359423 21.230469 -8.124999 -0.039062 -39.345699 -20.058594 33.502510 -66.494141 -4.707031 -82.508965 -39.716797 14.121095 -11.513673 -6.972656 7.617342 -0.147757 19.423828 34.687500 -100.375298 16.298828 2.792969 -36.230469 24.589844 6.064454 2.901424 -17.030857 12.186834 23.506969 38.701183 -0.881713 -2.668401 -15.352088 20.895557 -5.876018 -19.043007 -25.996017 -43.778118 68.056648 -1.412245 3.162822 24.426350 -17.005289 19.287407 
-61.449623 47.742260 -10.150161 -2.470703 -9.687570 -33.097160 42.470703 -0.439453 4.589775 -26.660154 5.673828 3.711903 -29.121092 3.808594 23.457678 14.394531 -5.205078 23.182705 21.259766 -7.578125 -0.057306 -39.453125 -21.855467 33.261715 -66.396484 -4.736328 -83.280441 -38.554688 12.363282 -9.744000 -5.751953 8.291017 -0.069768 23.642576 43.515625 -90.253906 19.013672 3.310547 -43.623611 26.191406 6.083985 3.038146 -18.726774 9.166078 19.471405 38.911644 -0.770445 -2.807048 -14.899071 20.070503 -6.236111 -23.243874 -25.324459 -49.789127 66.691483 -1.344231 3.147016 25.990011 -17.622601 19.919460 
-61.840332 47.583244 -10.319349 -2.988281 -8.281250 -25.528749 43.144527 -1.083984 4.980468 -25.761719 4.082031 4.619836 -32.500004 4.082031 22.724609 14.042969 -5.214844 22.655363 21.259766 -7.412108 -0.125693 -40.000000 -25.214842 33.179432 -66.367188 -4.755859 -83.358566 -37.480469 10.312500 -7.830284 -4.707031 8.457032 -0.039063 29.277346 50.917973 -79.181870 22.714844 3.671875 -50.811172 26.230469 7.636719 3.848956 -20.533964 6.433506 14.503219 38.886822 -0.871512 -2.674403 -13.875393 18.299034 -7.116673 -26.427431 -23.636206 -55.946461 65.109474 -1.394266 3.068643 27.991844 -16.712194 20.538980 
-62.616138 47.451134 -10.447712 -3.173828 -7.031250 -16.534395 43.310547 -1.679688 5.195025 -24.707031 2.851563 5.166502 -35.361328 4.160156 21.807352 13.867188 -5.380859 21.601561 21.074217 -7.578125 -0.097656 -41.054688 -29.033201 33.554688 -66.357422 -4.765625 -83.436691 -36.630856 8.769531 -6.658668 -3.847656 7.910156 -0.019531 36.738281 56.396484 -66.992188 27.011719 4.042969 -57.549515 25.722654 10.039063 4.873046 -22.507669 3.993368 9.443935 39.237846 -0.871594 -2.701749 -12.829194 15.717322 -8.222210 -28.361122 -21.976307 -61.207325 64.565353 -1.227028 3.141095 29.990835 -15.696961 20.605799 
-63.726830 47.355030 -10.443295 -3.173828 -5.996094 -5.986328 43.476559 -2.236328 5.244141 -24.013672 2.148437 5.713256 -37.877178 4.023107 20.421890 14.228516 -5.380859 20.380861 20.546875 -7.734375 -0.086577 -42.734375 -32.890621 34.296871 -66.523430 -4.814453 -83.563637 -36.445313 8.320313 -6.072803 -3.134766 6.865235 -0.185547 46.035152 59.521484 -52.929688 32.102371 4.277671 -64.471481 25.957031 12.050782 5.888671 -24.104900 1.522574 4.443066 39.598164 -0.770063 -3.015632 -11.721659 12.015843 -9.261200 -30.107304 -20.019911 -64.193863 65.080200 -1.394543 3.067390 31.500261 -14.687819 20.586342 
-65.083534 47.312466 -10.167696 -2.988281 -5.117188 5.594831 43.125000 -2.568359 5.166016 -23.486328 1.621094 5.722933 -40.048828 3.476563 18.711531 14.746093 -5.205078 18.623049 20.195313 -8.076172 -0.019531 -45.146484 -36.435547 35.283207 -66.865234 -4.873047 -83.720703 -36.337891 8.583983 -6.229011 -2.802735 5.449219 -0.117188 55.849606 60.927734 -37.675781 37.851563 4.599609 -70.821091 26.708982 13.535155 6.708985 -25.569859 -0.752306 0.038944 39.773022 -0.471022 -3.301024 -10.712225 7.762803 -10.451036 -31.515100 -17.736980 -65.289978 65.593369 -1.217808 3.359095 32.296467 -14.403290 20.503090 
-66.539436 47.346195 -9.515843 -2.832031 -4.580078 18.622505 42.792969 -2.656250 4.765172 -23.144531 1.621094 5.722657 -42.070316 2.353515 16.523436 15.634764 -4.863281 16.152565 20.019531 -8.242188 0.011166 -48.681641 -39.316406 36.956707 -67.001953 -4.687500 -84.354675 -35.771484 9.726563 -7.058897 -2.812500 4.042969 -0.175781 65.537109 60.136715 -23.095703 44.257813 4.775391 -75.986328 28.476563 13.554688 7.316744 -26.252363 -2.645585 -3.586781 39.795856 -1.093883 -3.174580 -9.406814 3.509207 -11.334997 -32.549332 -15.445057 -64.957314 66.144142 -1.382738 3.112643 31.915091 -14.199696 20.284367 
